<svg xmlns="http://www.w3.org/2000/svg" version="1.1" xmlns:xlink="http://www.w3.org/1999/xlink" xmlns:svgjs="http://svgjs.dev/svgjs" width="1500" height="1500" viewBox="0 0 1500 1500"><rect width="1500" height="1500" fill="#ca3433"></rect><g transform="matrix(0.6666666666666666,0,0,0.6666666666666666,249.39393939393938,438.5856950067477)"><svg viewBox="0 0 396 247" data-background-color="#ca3433" preserveAspectRatio="xMidYMid meet" height="935" width="1500" xmlns="http://www.w3.org/2000/svg" xmlns:xlink="http://www.w3.org/1999/xlink"><g id="tight-bounds" transform="matrix(1,0,0,1,0.2400000000000091,-0.09999999999999432)"><svg viewBox="0 0 395.52 247.2" height="247.2" width="395.52"><g><svg></svg></g><g><svg viewBox="0 0 395.52 247.2" height="247.2" width="395.52"><g transform="matrix(1,0,0,1,75.54432,82.2183677203368)"><svg viewBox="0 0 244.43135999999998 82.76326455932637" height="82.76326455932637" width="244.43135999999998"><g><svg viewBox="0 0 427.53694935231124 144.76192272600642" height="82.76326455932637" width="244.43135999999998"><g transform="matrix(1,0,0,1,0,4.506613965742943)"><svg viewBox="0 0 244.43135999999998 135.74869479452053" height="135.74869479452053" width="244.43135999999998"><g id="textblocktransform"><svg viewBox="0 0 244.43135999999998 135.74869479452053" height="135.74869479452053" width="244.43135999999998" id="textblock"><g><svg viewBox="0 0 244.43135999999998 135.74869479452053" height="135.74869479452053" width="244.43135999999998"><g transform="matrix(1,0,0,1,0,0)"><svg width="244.43135999999998" viewBox="-1.54 -36.25 85.54 47.5" height="135.74869479452053" data-palette-color="#f7e1e1"><path d="M0.05 11.25L-1.54 8.76Q0.78 7.28 2.14 5.66 3.49 4.05 4.19 2.27 4.88 0.49 5.08-1.49 5.27-3.47 5.27-5.66L5.27-5.66 5.27-35.77 10.06-35.77 10.06-7.2Q10.06-4.35 9.67-1.71 9.28 0.93 8.19 3.28 7.1 5.64 5.15 7.65 3.2 9.67 0.05 11.25L0.05 11.25ZM43.99 0L40.6-9.72 25.17-9.72 21.82 0 17.31 0 30.61-35.77 35.69-35.77 49.02 0 43.99 0ZM26.46-13.45L39.26-13.45 34.52-27.42 33.13-32.4 32.64-32.4 31.25-27.42 26.46-13.45ZM84-16.75L84-1.83Q80.61-0.51 77.61-0.01 74.6 0.49 72.19 0.49L72.19 0.49Q68.11 0.49 64.77-0.74 61.42-1.98 59.04-4.26 56.66-6.54 55.37-9.78 54.07-13.01 54.07-16.99L54.07-16.99Q54.07-20 54.8-22.6 55.54-25.2 56.86-27.33 58.17-29.47 60.02-31.13 61.86-32.79 64.07-33.92 66.28-35.06 68.79-35.66 71.31-36.25 73.99-36.25L73.99-36.25Q75.75-36.25 78.12-35.95 80.49-35.64 83.17-34.84L83.17-34.84 82.37-30.64 81.88-30.4Q79.19-31.62 76.9-32.04 74.6-32.47 72.97-32.47L72.97-32.47Q69.84-32.47 67.28-31.34 64.72-30.2 62.89-28.23 61.05-26.27 60.05-23.62 59.05-20.97 59.05-17.97L59.05-17.97Q59.05-15.11 59.98-12.46 60.91-9.81 62.68-7.78 64.45-5.74 67.04-4.52 69.62-3.3 72.97-3.3L72.97-3.3Q74.43-3.3 76.15-3.56 77.88-3.83 79.71-4.39L79.71-4.39 79.71-16.75 84-16.75Z" opacity="1" transform="matrix(1,0,0,1,0,0)" fill="#f7e1e1" class="wordmark-text-0" data-fill-palette-color="primary" id="text-0"></path></svg></g></svg></g></svg></g></svg></g><g transform="matrix(1,0,0,1,276.4783688723112,0)"><svg viewBox="0 0 151.05858048 144.76192272600642" height="144.76192272600642" width="151.05858048"><g><svg xmlns="http://www.w3.org/2000/svg" xmlns:xlink="http://www.w3.org/1999/xlink" version="1.1" x="0" y="0" viewBox="0.00025000000000043737 0.5008843362408458 23.999499999999998 22.999115663759156" style="enable-background:new 0 0 24 24;" xml:space="preserve" height="144.76192272600642" width="151.05858048" class="icon-icon-0" data-fill-palette-color="accent" id="icon-0"><g fill="#001f3f" data-fill-palette-color="accent"><g fill="#001f3f" data-fill-palette-color="accent"><path d="M7.5 23.5c-0.063 0-0.127-0.012-0.189-0.037-0.255-0.104-0.378-0.396-0.273-0.652l9-22c0.105-0.255 0.399-0.377 0.652-0.273 0.255 0.104 0.378 0.396 0.273 0.652l-9 22C7.884 23.383 7.697 23.5 7.5 23.5z" fill="#001f3f" data-fill-palette-color="accent"></path></g><g fill="#001f3f" data-fill-palette-color="accent"><path d="M17.5 19.5c-0.115 0-0.231-0.04-0.325-0.121-0.21-0.18-0.234-0.495-0.054-0.705L22.841 12l-5.721-6.675c-0.18-0.209-0.156-0.525 0.054-0.705 0.21-0.18 0.525-0.156 0.705 0.054l6 7c0.161 0.187 0.161 0.463 0 0.65l-6 7C17.781 19.441 17.641 19.5 17.5 19.5z" fill="#001f3f" data-fill-palette-color="accent"></path></g><g fill="#001f3f" data-fill-palette-color="accent"><path d="M6.5 19.5c-0.141 0-0.281-0.059-0.379-0.175l-6-7c-0.161-0.187-0.161-0.463 0-0.65l6-7c0.18-0.21 0.496-0.234 0.705-0.054C7.035 4.8 7.06 5.116 6.879 5.325L1.159 12l5.721 6.675c0.18 0.209 0.156 0.525-0.054 0.705C6.731 19.46 6.615 19.5 6.5 19.5z" fill="#001f3f" data-fill-palette-color="accent"></path></g></g></svg></g></svg></g></svg></g></svg></g><path d="M180.221 76.218L180.221 20.672 386.077 20.672 386.077 226.528 180.221 226.528 180.221 170.982 187.22 170.982 187.22 219.529 379.078 219.529 379.078 27.671 187.22 27.671 187.22 76.218Z" fill="#ff4136" stroke="transparent" data-fill-palette-color="tertiary"></path></svg></g><defs></defs></svg><rect width="395.52" height="247.2" fill="none" stroke="none" visibility="hidden"></rect></g></svg></g></svg>